# xmcd
#
# Track frame offsets:
#	150
#	16682
#	29198
#	41596
#	56865
#	74593
#	81319
#	93991
#	111479
#	120936
#	130448
#	144494
#	156796
#	168994
#	185013
#	203023
#	217021
#	228357
#	241388
#	253799
#
# Disc length: 3552 seconds
#
# Revision: 0
# Processed by: cddbd v1.5.2PL0 Copyright (c) Steve Scherf et al.
# Submitted via: audiograbber 1.81.03
#
DISCID=280dde14
DTITLE=Various Artist - Country Teardrops Disc 2
DYEAR=2006
DGENRE=Country
TTITLE0=Billie Jo Spears - Blanket On The Ground
TTITLE1=Johnny Cash - Ring Of Fire
TTITLE2=Patsy Cline - A Poor Man's Roses 
TTITLE3=Kenny Rogers - For The Good Times
TTITLE4=Marie O'Brien - The Wind Beneath My Wings
TTITLE5=Jim Reeves - Have I Told You Lately That I Love You
TTITLE6=Cindy Morgan - Your My Best Friend
TTITLE7=Don Williams - I Believe In You
TTITLE8=Susan Taylor - In My Life
TTITLE9=Faron Young - Remember Me (I'm The One Who Loves You)
TTITLE10=Jo Ann Houston - Crying Time
TTITLE11=Eddy Arnold - I'll Hold You In My Heart
TTITLE12=Billie Jo Spears - You Never Can Tell
TTITLE13=Jerry Lee Lewis - She Even Woke Me Up To Say Goodbye
TTITLE14=Cindy Morgan - Sweet Dreams
TTITLE15=Conway Twitty - 15 Years Ago
TTITLE16=Patsy Cline - Just Out Of Reach (Of My Two Open Arms)
TTITLE17=George Jones - Hello Darlin'
TTITLE18=Marie O'Brien - Let's Love The Bad Times Away
TTITLE19=Freddy Fender - Almost Persuaded
EXTD=
EXTT0=
EXTT1=
EXTT2=
EXTT3=
EXTT4=
EXTT5=
EXTT6=
EXTT7=
EXTT8=
EXTT9=
EXTT10=
EXTT11=
EXTT12=
EXTT13=
EXTT14=
EXTT15=
EXTT16=
EXTT17=
EXTT18=
EXTT19=
PLAYORDER=
